<svg clip-rule="evenodd" fill-rule="evenodd" stroke-linejoin="round" stroke-miterlimit="2" viewBox="0 0 202 149" xmlns="http://www.w3.org/2000/svg"><g transform="matrix(1.00845 0 0 .987537 -1786.81 -860.404)"><path d="m1771.84 871.263h200.116v149.904h-200.116z" fill="none"/><path d="m50.517 157-19.715-72.499h-30.802z" fill="#5c9161" transform="matrix(.991624 0 0 1.01262 1772.67 861.4)"/><path d="m47.616 146.329-14.869-54.673 16.987-22.128z" fill="#5c9161" transform="matrix(1.40529 0 0 1.43505 1762.22 810.392)"/><path d="m56.4 57.935h-32.673v-19.778h32.673v-27.845h19.876v27.845h46.832v-27.845h19.876v34.861l55.766 37.428-11.115 16.396-44.651-29.968v86.646h-19.876v-97.74h-46.832v97.74h-19.876z" transform="matrix(.997803 0 0 1.02401 1772.8 860.969)"/><path d="m142.984 54.09-8.163.626-76.944-12.984h85.107z" fill="#5c9161" transform="matrix(.523496 .360579 -3.1022 4.69658 2014.63 714.788)"/></g></svg>