<svg clip-rule="evenodd" fill-rule="evenodd" stroke-linejoin="round" stroke-miterlimit="2" viewBox="0 0 871 148" xmlns="http://www.w3.org/2000/svg"><g transform="matrix(.929743 0 0 .879443 0 -8.79656)"><path d="m0 10.002h936.775v168.22h-936.775z" fill="none"/><path d="m50.517 157-19.715-72.499h-30.802z" fill="#5c9161" transform="matrix(1.07557 0 0 1.13708 0 -1.36841)"/><path d="m47.616 146.329-14.869-54.673 16.987-22.128z" fill="#5c9161" transform="matrix(1.52425 0 0 1.61143 -11.3332 -58.6461)"/><g fill-rule="nonzero"><path d="m.74 0h-.123l-.074-.385-.144.395h-.045l-.145-.395-.077.385h-.122l.144-.715h.067l.155.482.151-.482h.067z" transform="matrix(195.922940562 0 0 207.128568036 240.51943223 175.131048058)"/><path d="m.485-0v-.322h-.285v.322h-.127v-.715h.127v.28h.285v-.28h.125v.715z" transform="matrix(195.922940562 0 0 207.128568036 386.50570289 175.131048058)"/><path d="m.364-.603v.603h-.127v-.603h-.227v-.112h.592v.112z" transform="matrix(195.922940562 0 0 207.128568036 520.43687468 175.131048058)"/><path d="m.533-.224h-.374c.002.042.017.074.043.097.027.023.062.035.107.035.055 0 .098-.015.127-.044l.047.094c-.043.034-.107.052-.192.052-.08 0-.143-.024-.19-.07-.046-.047-.069-.112-.069-.196 0-.082.025-.149.076-.2s.112-.077.184-.077c.075 0 .136.023.182.068s.069.103.069.173c0 .015-.003.038-.01.068zm-.369-.092h.256c-.008-.076-.05-.115-.127-.115-.069 0-.112.039-.129.115z" transform="matrix(195.922940562 0 0 207.128568036 618.59077253 175.131048058)"/><path d="m.476-.481-.052.091c-.029-.027-.067-.041-.115-.041-.047 0-.083.016-.11.046-.027.031-.04.074-.04.128 0 .11.052.165.156.165.046 0 .086-.015.12-.045l.045.096c-.036.022-.067.036-.093.042-.027.006-.058.009-.094.009-.081 0-.144-.024-.191-.071s-.07-.112-.07-.196c0-.082.025-.149.076-.2.052-.05.121-.076.209-.076.061 0 .114.017.159.052z" transform="matrix(195.922940562 0 0 207.128568036 731.1886163 175.131048058)"/><path d="m.404-0v-.322c0-.032-.01-.058-.03-.078-.02-.019-.047-.029-.079-.029-.02 0-.041.005-.061.016-.021.011-.035.024-.044.038v.375h-.124v-.718l.124-.029v.257c.032-.028.075-.043.13-.043.066 0 .117.018.153.055.036.036.054.088.054.156v.322z" transform="matrix(195.922940562 0 0 207.128568036 831.44628332 175.131048058)"/></g><path d="m56.4 57.935h-32.673v-19.778h32.673v-27.845h19.876v27.845h46.832v-27.845h19.876v34.861l55.766 37.428-11.115 16.396-44.651-29.968v86.646h-19.876v-97.74h-46.832v97.74h-19.876z" transform="matrix(1.08227 0 0 1.14987 .13759 -1.85281)"/><path d="m142.984 54.09-8.163.626-76.944-12.984h85.107z" fill="#5c9161" transform="matrix(.567811 .404899 -3.3648 5.27385 262.442 -166.001)"/></g></svg>