<svg enable-background="new 0 0 64 64" height="64" viewBox="0 0 64 64" width="64" xmlns="http://www.w3.org/2000/svg"><path clip-rule="evenodd" d="m.798 62.987h14.315v-40.619h-14.315zm47.635-41.9c-5.924 0-9.192 1.972-12.952 6.749v-5.469h-14.292v40.619h14.291v-22.072c0-4.658 2.24-9.214 7.596-9.214s6.673 4.555 6.673 9.103v22.184h14.251v-23.091c0-16.042-9.638-18.809-15.567-18.809zm-40.451-19.074c-4.41 0-7.982 3.209-7.982 7.17 0 3.958 3.572 7.162 7.982 7.162 4.406 0 7.978-3.205 7.978-7.162 0-3.961-3.572-7.17-7.978-7.17z" fill-rule="evenodd"/></svg>